<?xml version="1.0" encoding="UTF-8"?>
<svg id="Layer_2" data-name="Layer 2" xmlns="http://www.w3.org/2000/svg" viewBox="0 0 73.78 58.23">
  <defs>
    <style>
      .cls-1 {
        fill: #a08d31;
        fill-rule: evenodd;
      }
    </style>
  </defs>
  <g id="Layer_1-2" data-name="Layer 1">
    <g>
      <path class="cls-1" d="M26.77,20.83c-.34-.5-.63-.96-.97-1.55-1.69-3.01-2.05-6.24-1.39-9.09,.03,2.03,.57,4.14,1.7,6.15,.48,.85,.87,1.42,1.43,2.22,.7,1,1.04,1.17,1.61,2.04-.88,0-1.67,.08-2.39,.23h0Zm5.77,32.92c.61,1.2,.56,2.63-1.58,4.04-.62,.41-.13,0-.65,.45h-1.83c-2.81-1.95-20.01-4.35-26.79-17.77-1.49-2.95-.76-2.36-1.59-4.62-.02-.06-.06-.18-.11-.26v-3.65l.31-1.09v1.81c.05,.08,.09,.2,.11,.26,.82,2.26,.1,1.67,1.59,4.62,6.77,13.42,23.98,15.82,26.79,17.77h1.83c.52-.45,.03-.04,.65-.45,.56-.37,.97-.74,1.27-1.11ZM73.78,13.74v2.12c-.35,.55-.07,.03-.3,.79-.07,.22-.17,.64-.23,.86-1.15,4.24-3.57,7.75-6.68,10.86-7.09,7.09-16.4,10.36-25.89,13.56l-3.69,1.06c-.62,.22-4.34,3.12-6.13,5.55-.34-.29-.58-.48-.6-.55-.58-2.22,6.19-7.63,7.04-7.93l3.69-1.06c9.49-3.19,18.8-6.46,25.89-13.56,3.11-3.11,5.53-6.62,6.67-10.86,.06-.22,.16-.62,.22-.84Z"/>
      <path class="cls-1" d="M19.89,28.68s5.5-6.38,12.17-4.2c0,0,4.94,1.45,5.37,6.85,0,0,.53,4.32-7.36,10.45,0,0-7.44,6.3-.63,10.55,0,0-9.16-2.41-15.86-6.47,0,0-12.23-6.61-10.24-16.96,0,0,0-5.4,8.11-5.74,0,0,5.95-.54,8.44,5.52h0Z"/>
      <path class="cls-1" d="M49.23,7.01S42.26-1.08,33.81,1.69c0,0-6.27,1.83-6.81,8.68,0,0-.68,5.48,9.33,13.25,0,0,9.42,7.98,.8,13.37,0,0,11.61-3.06,20.09-8.2,0,0,13.17-7.12,13.25-18.51,0-.97-.08-1.96-.28-2.99,0,0,0-6.83-10.28-7.27,0,0-7.54-.69-10.69,6.99h0Z"/>
    </g>
  </g>
</svg>