<?xml version="1.0" encoding="UTF-8"?>
<svg id="Layer_2" data-name="Layer 2" xmlns="http://www.w3.org/2000/svg" viewBox="0 0 479.39 200.65">
  <defs>
    <style>
      .cls-1, .cls-2 {
        fill: #a08d31;
      }

      .cls-2 {
        fill-rule: evenodd;
      }
    </style>
  </defs>
  <g id="Layer_1-2" data-name="Layer 1">
    <g>
      <g>
        <path class="cls-1" d="M59.08,14.87V6.82c0-3.17,2.57-5.75,5.75-5.75h48.33V14.87H59.08Zm35.33,26.07c0-2.37-.75-4.22-2.26-5.55-1.51-1.33-3.52-1.99-6.03-1.99s-4.44,.66-5.98,1.99c-1.54,1.33-2.31,3.18-2.31,5.55v10.56l-4.42-4.09h1.4c3.59,0,6.26,.79,8.02,2.37,1.76,1.58,2.64,3.99,2.64,7.22s-1.02,5.8-3.07,7.49c-2.05,1.69-5.33,2.53-9.86,2.53s-7.74-.61-9.86-1.83c-2.12-1.22-3.18-3.05-3.18-5.49v-18.74c0-6.53,2.37-11.58,7.11-15.14,4.74-3.55,11.24-5.33,19.5-5.33s14.85,1.78,19.55,5.33c4.7,3.55,7.06,8.6,7.06,15.14v25.42h-18.31v-25.42Zm-19.18,20.04c2.3,0,3.45-1.26,3.45-3.77s-1.15-3.77-3.45-3.77v7.54Z"/>
        <path class="cls-1" d="M96.13,101.57v-29.83h16.59v29.83h-16.59Z"/>
        <path class="cls-1" d="M189.42,67.43c-8.26,0-14.67-1.78-19.23-5.33s-6.84-8.6-6.84-15.14V20.47c0-2.37-.72-4.22-2.15-5.55-1.44-1.33-3.38-1.99-5.82-1.99s-4.38,.67-5.82,1.99c-1.44,1.33-2.15,3.18-2.15,5.55v31.02l-4.42-4.09h1.4c3.59,0,6.26,.79,8.02,2.37,1.76,1.58,2.64,3.99,2.64,7.22s-1.02,5.8-3.07,7.49c-2.05,1.69-5.33,2.53-9.86,2.53s-7.74-.61-9.86-1.83c-2.12-1.22-3.18-3.05-3.18-5.49V20.47c0-6.53,2.32-11.58,6.95-15.13,4.63-3.55,11.08-5.33,19.34-5.33s14.7,1.78,19.34,5.33c4.63,3.55,6.95,8.6,6.95,15.13v26.5c0,2.37,.68,4.22,2.05,5.55,1.36,1.33,3.27,1.99,5.71,1.99s4.35-.66,5.71-1.99c1.36-1.33,2.05-3.18,2.05-5.55V26.72c0-1.87-.31-3.25-.91-4.15-.61-.9-1.45-1.56-2.53-1.99v-7.86c0-3.81,.93-6.7,2.8-8.67,1.87-1.97,4.63-2.96,8.29-2.96h11.31V14.87h-5.17c-1.29,0-1.94,.72-1.94,2.15v1.08c2.3,.86,3.95,1.96,4.96,3.29,1,1.33,1.51,3.25,1.51,5.76v19.82c0,6.54-2.28,11.58-6.84,15.14-4.56,3.55-10.97,5.33-19.23,5.33Zm-44.6-6.46c2.3,0,3.45-1.26,3.45-3.77s-1.15-3.77-3.45-3.77v7.54ZM231.86,21.76c0-4.6-2.12-6.89-6.36-6.89h-11.31V1.08h17.78c12.14,0,18.2,6.11,18.2,18.31v46.97h-18.31V21.76Z"/>
      </g>
      <path class="cls-1" d="M9.47,135.59c-19.29-53.52,36.95-34.68,94.22-21.36,4.62,1.07,9.03-2.43,9.03-7.17v-5.79C65.75,87.64,13.18,68.75,1.03,95.81c-3.17,7.07,1.33,36.8,8.44,39.77Z"/>
      <polygon class="cls-2" points="114.98 121.98 117.46 130.05 125.54 132.53 117.46 135.01 114.98 143.09 112.5 135.01 104.43 132.53 112.5 130.05 114.98 121.98"/>
      <g>
        <polygon class="cls-2" points="444.79 54.61 447.7 64.09 457.18 67 447.7 69.91 444.79 79.39 441.88 69.91 432.4 67 441.88 64.09 444.79 54.61"/>
        <path class="cls-1" d="M478.17,172.44v1.27c-.63,1.27-1.53,2.29-2.68,3.08-2.62,1.79-6.81,2.66-12.56,2.66h-2.81c-3.03,0-6.06-.35-9.01-1.07-2.9-.7-5.76-1.37-8.55-2.01-1.07-.26-2.09-.48-3.14-.72-1.72-.39-3.42-.76-5.08-1.09-.52-.11-1.03-.22-1.53-.33-.83-.15-1.66-.33-2.46-.48-3.93-.76-7.68-1.37-11.19-1.81-.87-.11-1.72-.2-2.57-.28-.59-.07-1.18-.11-1.75-.15-4.14-.35-7.9-.33-11.15,.11-12.17,1.66-17.43,9.44-10.36,29.03-5.85-2.44-9.55-26.87-6.94-32.68,8.73-19.48,42.93-9.99,77.22,.17,4.89,1.44,9.75,2.9,14.57,4.3Z"/>
        <g>
          <path class="cls-2" d="M296.88,29.19c-.34-.5-.63-.96-.97-1.55-1.69-3.01-2.05-6.24-1.39-9.09,.03,2.03,.57,4.14,1.7,6.15,.48,.85,.87,1.42,1.43,2.22,.7,1,1.04,1.17,1.61,2.04-.88,0-1.67,.08-2.39,.23h0Zm5.77,32.92c.61,1.2,.56,2.63-1.58,4.04-.62,.41-.13,0-.65,.45h-1.83c-2.81-1.95-20.01-4.35-26.79-17.77-1.49-2.95-.76-2.36-1.59-4.62-.02-.06-.06-.18-.11-.26v-3.65l.31-1.09v1.81c.05,.08,.09,.2,.11,.26,.82,2.26,.1,1.67,1.59,4.62,6.77,13.42,23.98,15.82,26.79,17.77h1.83c.52-.45,.03-.04,.65-.45,.56-.37,.97-.74,1.27-1.11Zm41.23-40v2.12c-.35,.55-.07,.03-.3,.79-.07,.22-.17,.64-.23,.86-1.15,4.24-3.57,7.75-6.68,10.86-7.09,7.09-16.4,10.36-25.89,13.56l-3.69,1.06c-.62,.22-4.34,3.12-6.13,5.55-.34-.29-.58-.48-.6-.55-.58-2.22,6.19-7.63,7.04-7.93l3.69-1.06c9.49-3.19,18.8-6.46,25.89-13.56,3.11-3.11,5.53-6.62,6.67-10.86,.06-.22,.16-.62,.22-.84Z"/>
          <path class="cls-2" d="M289.99,37.04s5.5-6.38,12.17-4.2c0,0,4.94,1.45,5.37,6.85,0,0,.53,4.32-7.36,10.45,0,0-7.44,6.3-.63,10.55,0,0-9.16-2.41-15.86-6.47,0,0-12.23-6.61-10.24-16.96,0,0,0-5.4,8.11-5.74,0,0,5.95-.54,8.44,5.52h0Z"/>
          <path class="cls-2" d="M319.34,15.38s-6.97-8.09-15.42-5.32c0,0-6.27,1.83-6.81,8.68,0,0-.68,5.48,9.33,13.25,0,0,9.42,7.98,.8,13.37,0,0,11.61-3.06,20.09-8.2,0,0,13.17-7.12,13.25-18.51,0-.97-.08-1.96-.28-2.99,0,0,0-6.83-10.28-7.27,0,0-7.54-.69-10.69,6.99h0Z"/>
        </g>
        <g>
          <path class="cls-1" d="M156.25,138.06c-.98-.87-2.22-1.48-3.77-1.85v-19.26c0-2.33-.57-4.12-1.72-5.37-1.13-1.24-2.97-2.27-5.52-3.05v-1c0-1.35,.61-2.03,1.81-2.03h6.24v-12.85h-11.95c-3.42,0-6,.92-7.74,2.77-1.75,1.83-2.62,4.54-2.62,8.07v7.35c1.42,.39,2.49,1,3.27,1.85,.76,.83,1.16,2.12,1.16,3.86v30.76c0,2.27,.94,3.97,2.81,5.1,1.88,1.16,4.78,1.72,8.73,1.72,7.85,0,11.76-3.12,11.76-9.36,0-3.01-.81-5.26-2.44-6.72Zm-7,10.45v-7.05c2.16,0,3.23,1.18,3.23,3.53s-1.07,3.51-3.23,3.51Z"/>
          <path class="cls-1" d="M186.68,106c.37-.33,.83-.5,1.35-.5h23.62v-12.85h-29.25c-3.47,0-6.11,.92-7.87,2.77-1.79,1.83-2.66,4.54-2.66,8.07v6.33l4.34,4.08,5.69,5.37,10.45-5.1-4.54-4.12h-.02l-1.66-1.51v-1c0-.68,.17-1.18,.55-1.53Zm58.42-.5h4.82v-12.85h-10.54c-3.42,0-6,.92-7.74,2.77-1.75,1.83-2.62,4.54-2.62,8.07v7.35c1.03,.39,1.81,1,2.38,1.85,.57,.83,.85,2.12,.85,3.86v18.89c0,2.2-.63,3.93-1.92,5.17-1.27,1.24-3.03,1.85-5.32,1.85s-4.06-.61-5.32-1.85c-1.27-1.24-1.9-2.97-1.9-5.17v-7.24c0-5.89-2.16-10.45-6.48-13.65-4.34-3.21-10.34-4.82-18.04-4.82-1.92,0-3.75,.11-5.45,.31h-.02c-4.65,.55-8.51,1.83-11.58,3.86-.33,.2-.65,.41-.98,.65-4.32,3.21-6.48,7.77-6.48,13.65v19.11c0,2.27,.98,3.97,2.97,5.1,1.96,1.16,5.04,1.72,9.18,1.72s7.29-.79,9.21-2.38c1.9-1.57,2.86-3.88,2.86-6.98s-.83-5.26-2.46-6.72c-1.13-1.03-2.7-1.7-4.67-2.01v-7.85c0-2.07,.68-3.69,2.01-4.86,1.33-1.18,3.14-1.77,5.43-1.77s4.08,.59,5.41,1.77c1.35,1.18,2.03,2.79,2.03,4.86v7.24c0,6.09,2.12,10.8,6.37,14.11,4.25,3.32,10.23,4.97,17.93,4.97s13.68-1.66,17.93-4.97c4.25-3.32,6.39-8.03,6.39-14.11v-18.5c0-2.33-.48-4.12-1.42-5.37-.94-1.24-2.46-2.27-4.62-3.05v-1c0-1.35,.61-2.03,1.81-2.03Zm-58.46,39.5c0,2.33-1.07,3.51-3.23,3.51v-7.05c2.16,0,3.23,1.18,3.23,3.53Z"/>
          <path class="cls-1" d="M277.1,79.28c-3.03-2.75-7.94-4.12-14.7-4.12h-11.06v-5.21c0-2.33-.55-4.08-1.61-5.17-1.07-1.11-2.77-1.66-5.13-1.66h-12.76v9.64h2.81c1.22,0,1.81,.61,1.81,1.81v11.65h20.31c2.75,0,4.73,.63,5.98,1.92,1.22,1.27,1.85,3.32,1.85,6.13v67.1c0,2.22-.68,3.95-2.01,5.19-1.35,1.22-3.23,1.85-5.63,1.85s-4.3-.63-5.63-1.85c-1.33-1.24-2.01-2.97-2.01-5.19v-2.81h-17.08v2.81c0,6.11,2.16,10.8,6.48,14.11,4.32,3.32,10.4,4.97,18.24,4.97s13.92-1.66,18.24-4.97c4.32-3.32,6.48-8.01,6.48-14.11V92.54c0-6.09-1.53-10.51-4.58-13.26Z"/>
          <path class="cls-1" d="M306.39,89.03v5.41l-2.92-1.79h-3.6c-3.82,0-5.74,2.25-5.74,6.72v11.76c1.27,.28,2.38,.65,3.32,1.16,.94,.5,1.66,1.16,2.16,1.92,.5,.76,.76,1.72,.76,2.86v18.96c-2.01,.31-3.6,.98-4.78,2.05-1.64,1.46-2.47,3.71-2.47,6.72s.98,5.41,2.92,6.98c1.94,1.59,5.04,2.38,9.34,2.38,8.03,0,12.06-2.29,12.06-6.83v-29.84c0-2.36-.79-4.28-2.31-5.78-1.55-1.51-3.93-2.66-7.13-3.47v-1.2c0-1.22,.52-1.81,1.59-1.81h.61l4.21,1h.92c1.75,0,3.1-.46,4.06-1.35,.98-.92,1.46-2.27,1.46-4.08v-11.76h-14.46Zm-2.81,59.48c-2.14,0-3.21-1.18-3.21-3.51s1.07-3.53,3.21-3.53v7.05Z"/>
          <path class="cls-1" d="M333.03,92.65v12.85h50.32v-12.85h-50.32Zm43.34,23.06c-4.38-3.32-10.36-4.97-17.93-4.97s-13.87,1.7-18.08,5.08c-4.23,3.38-6.33,7.81-6.33,13.31,0,2.01,.22,3.84,.7,5.52,.46,1.68,1.03,3.21,1.66,4.58s1.18,2.6,1.66,3.66c.46,1.07,.7,2.05,.7,2.9,0,.28-.04,.55-.11,.81-.07,.28-.15,.5-.28,.72h-.22c-.72-.55-1.4-1.37-2.01-2.53-.59-1.13-1.07-2.4-1.4-3.82l-7.63,3.23c.81,2.33,1.77,4.25,2.9,5.78,1.13,1.51,2.57,2.6,4.32,3.32,1.74,.7,3.93,1.05,6.54,1.05,3.82,0,6.98-.76,9.49-2.31,2.51-1.55,3.77-4.06,3.77-7.53,0-1.22-.13-2.46-.41-3.73-.26-1.27-.59-2.55-1-3.82-.39-1.27-.74-2.53-1-3.77-.26-1.22-.39-2.38-.39-3.47,0-2.14,.61-3.82,1.85-5.06,1.24-1.24,2.9-1.85,4.97-1.85,2.33,0,4.21,.61,5.63,1.85,1.4,1.24,2.12,2.97,2.12,5.17v23.71h17.08v-23.71c0-6.09-2.2-10.8-6.59-14.11Z"/>
          <path class="cls-1" d="M474.33,96.16c-2.99-2.33-7.15-3.51-12.52-3.51h-9.34l-10.54,7.72-2.33,1.72,5.23,9.64,2.2-1.53,7.05-4.91h2.6c3.36,0,5.04,1.61,5.04,4.82v43.41h17.08v-45.11c0-5.82-1.51-9.9-4.47-12.26Zm2.4,64.46c-1.77-1.92-5.04-2.86-9.79-2.86-1.2,0-2.46,.07-3.77,.2h-.04c-1.83,0-3.32,1.48-3.32,3.32v3.9c.48-.13,1.03-.24,1.66-.35,.63-.09,1.2-.15,1.66-.15,.68,0,1.18,.13,1.51,.41,.35,.26,.5,.65,.5,1.2,0,.68-.28,1.18-.85,1.55-.2,.13-.41,.24-.68,.31-.48,.17-1.09,.26-1.79,.26h-6.72c-3.01,0-5.89-.28-8.59-.81-2.73-.55-5.45-1.2-8.25-1.96-2.77-.76-5.71-1.55-8.83-2.31-3.12-.76-6.54-1.42-10.3-1.96-3.75-.52-7.98-.81-12.67-.81h-3.21v11.06h.44c3.25-.44,7-.46,11.15-.11,.57,.04,1.16,.09,1.75,.15,.85,.09,1.7,.17,2.57,.28,3.51,.44,7.26,1.05,11.19,1.81,.81,.15,1.64,.31,2.46,.48,.5,.11,1,.22,1.53,.33,1.66,.33,3.36,.7,5.08,1.09,1.05,.24,2.07,.46,3.14,.72,2.8,.63,5.66,1.31,8.57,2.01,2.97,.71,6.01,1.06,9.06,1.06h2.74c5.76,0,9.95-.87,12.56-2.66,1.16-.79,2.05-1.81,2.68-3.08,.83-1.57,1.22-3.51,1.22-5.8,0-2.94-.87-5.39-2.66-7.29Zm-34.79-60.25l-9.05-8.73h-1.22l-5.72,4.33c-1.96,1.48-4.66,1.48-6.62,0l-5.74-4.33h-1.2l-14.16,13.65v42.01c0,2.27,.98,3.97,2.97,5.1,1.96,1.16,5.04,1.72,9.18,1.72s7.29-.79,9.18-2.38c1.92-1.57,2.88-3.88,2.88-6.98s-.83-5.26-2.46-6.72c-1.13-1.03-2.7-1.7-4.67-2.01v-27.03l2.2-2.12,4.82,4.01h.61l4.82-4.01,2.2,2.12v44.5h17.08v-48.23l-5.1-4.93Zm-25.83,44.63c0,2.33-1.09,3.51-3.23,3.51v-7.05c2.14,0,3.23,1.18,3.23,3.53Z"/>
          <path class="cls-1" d="M373.93,55.07c-.59-.5-.98-.79-1.11-.87v-.02h-.02c-6.78-5.17-14.59-7.79-20.35-7.85-11.39-.94-27.2,8.99-25.17,24.58,2.09,16.34,17.67,18.65,34.18,15.47,12.72-1.2,20.4,1.33,25.15,7,.85-3.82,1.18-7.37,1.09-10.69-2.2-16.51-10.67-25.02-13.76-27.62Zm-30.12,12.74c.04-5.43,6.39-11.06,17.19-8.9,11.87,2.01,18.06,11.47,22.75,22.93-14.9-8.86-40.05,4.01-39.94-14.03Z"/>
        </g>
        <polygon class="cls-2" points="199.32 163.4 202.23 172.88 211.71 175.79 202.23 178.7 199.32 188.18 196.41 178.7 186.93 175.79 196.41 172.88 199.32 163.4"/>
        <path class="cls-1" d="M450.88,27.76v.02l-.02-.02h.02Z"/>
      </g>
      <path class="cls-1" d="M39.05,62.01c.21,0,.37,.82-.02,.94-.26,.08-1.34-.29-1.87-.26-1.09,.05-2.82,.82-3.73,1.44-.21,.14-1.57,1.23-1.65,1.34-.15,.2-.15,.38-.13,.62,2.64-1.36,5.87-2.28,8.63-.68l-.09,.66c-.34,.21-1.68-.67-2.25-.76-1.51-.24-4.42,.41-5.65,1.34-.6,.45-.39,1.04-.71,1.6-.45,.79-1.22,.57-1.76,.96-.4,.28-1.03,1.27-1.56,1.7-1.31,1.08-2.67,1.42-4.06,2.19-1.5,.84-2.49,2.61-3.82,3.78-.56,.5-2,1.76-2.76,1.54-.94-.58-.33-1.47-.24-2.23,.03-.22,.02-.22-.2-.2-.42,.03-2.36,1.18-3.06,1.43-2.53,.9-6.81,1.58-9.08-.14-1.71-1.3-2.31-2.33-3.15-4.18-.32-.71-1.21-1.45-1.33-2.2-.09-.59,.12-1.11,.09-1.59-.04-.69-.67-1.25-.66-1.94,0-.63,.61-1.14,.64-1.92,.02-.62-.32-1.11-.36-1.61-.15-1.55,1.1-1.83,1.69-2.94,.37-.7,.25-1,.39-1.65,.27-1.26,1.47-1.15,2.21-1.87,.69-.66,.68-1.84,1.91-2.03,1.71-.26,2.63,.34,4.13,.61,.82,.15,.06-.46-.13-.69-1-1.28-2.11-2.87-1.87-4.58,.09-.66,.56-1.17,.64-1.67s-.12-.81-.12-1.2c.02-1.02,1.16-1.69,1.29-2.52,.06-.37-.1-.65-.09-1.02,.02-1.16,.88-1.48,1.4-2.28,.56-.87,.48-1.79,.92-2.61,.57-1.07,1.82-1.41,2.34-2.68,.62-1.52,.09-3.21,1.03-4.67,.41-.63,1.22-1.24,2-1.27,2.34-.08,4.8,3.75,5.88,5.53,.6,.99,1.23,2.59,1.87,3.43,1.15,1.51,2.97-.87,4.23-1.32,1.09-.39,2.09-.13,3.1-.71,1.35-.77,1.79-2.71,3.62-3.17,4.27-1.08,4.06,6.45,3.92,8.94-.46,8.14-4.22,15.53-9.64,21.45-.05,.17,.03,.27,.2,.2s1.12-1.05,1.44-1.28c.95-.68,2.71-1.7,3.86-1.84,.73-.09,1.8,0,2.58,0Zm-16.29-24.44c.14,.38,1.06,1.79,1.34,2.19,.11,.16,0,.33,.35,.25,.24-.32-.9-3.33-1.76-3.12-.02,.24-.01,.45,.07,.67Zm-2.33,5.04c-.34-.47-2.64-3.13-3.05-2.94-1.33,.64,1.25,2.68,1.7,3.2,.35,.4,1.95,2.45,2.22,2.52,.14,.04,.28-.07,.42-.08,.24-.33-1.03-2.32-1.3-2.7Zm.9-2.26c-.28-.28-1.2-1.07-1.07-.16,.17,1.13,2.17,3.72,2.82,4.79l.4-.08c-.09-1.56-1.06-3.43-2.16-4.54Zm3.25,3.47c-.14-1.25-.56-2.57-1.56-3.39-.15-.13-.22-.33-.47-.27-.17,.18,1.48,3.48,2.03,3.66Zm8.3-2.23c-.58,.87,.07,2.19,.22,3.15,.14,.88,.17,2.13,.34,2.92,.06,.26,.25,.47,.45,.64,.13-.11,.25-.2,.31-.37,.43-1.25,.09-4.33-.3-5.6-.09-.28-.26-.85-.57-.93-.23-.06-.32,.02-.44,.2Zm6.37,4.06c.35-.44,.66-3.23,.2-3.33-.19-.06-.47,.41-.47,.47v2.72s.27,.14,.27,.14Zm-3.12-2.38c-.38-.07-.57,.16-.65,.5-.14,.63-.27,2.12-.31,2.82-.04,.67,.02,1.35,.02,2.02,.09,.26,.4,.27,.64,.2,.77-1.73,.71-3.74,.29-5.55Zm-17.47,.97c-.46-.31-1.07-.61-1.61-.3-1.57,.89,.85,2.13,1.43,2.65,.42,.38,.9,.87,1.29,1.29,.15,.16,1.33,1.89,1.56,1.63-.02-1.97-1-4.16-2.67-5.27Zm11.35,1.26c.04,.74,.74,2.33,.92,3.3,.11,.63,.07,1.41,.17,2,.03,.18,.13,.39,.34,.34,1.12-1.61,1.45-3.99,.45-5.74-.24-.41-.5-.84-1.03-.88-.62-.05-.89,.41-.85,.99Zm7.33,2.92c.6-1.25,.73-2.33,.27-3.67h-.4c.14,.33-.14,.84-.14,1.02,0,.77,0,1.54,0,2.31,0,.1-.26,.33,.27,.34Zm-8.43,2.53c.09,1.06-.07,2.2,.01,3.25,.02,.24-.04,.44,.21,.6,1.78-2.28,1.42-6.9-.47-9.03-.1-.12-.69-.76-.82-.61,.22,1.9,.91,3.89,1.07,5.79Zm-7.45,1.21c0-1.48-4.09-5.71-5.67-6.01-3.34-.63-2.82,1.72-.99,3.3l6.65,5.23v-2.51Zm3.32-3.33c.54-.41,.21-2.42-.29-2.57-1.07-.32-.53,2.8,.29,2.57Zm1.63,1.37c.92,.09,1.02-2.14,.13-2.13s-.81,2.07-.13,2.13Zm-3.81,8.69c-.95-2.63-1.66-3.17-3.73-4.96-.98-.85-5.62-4.72-6.51-4.9-1-.2-1.78,.65-1.64,1.65,.13,.98,2.77,2.39,3.6,3.05,4.19,3.32,5.79,8.42,9.91,11.81,.15,.13,.22,.33,.47,.27-.6-2.32-1.29-4.66-2.11-6.92Zm3.33,7.73h.4c.07-.56,.2-1.13,.27-1.7,.6-4.97,.59-9.78-2.2-14.09-.36-.55-.7-1.36-1.47-1.32-1.54,5.85,1.75,11.5,2.99,17.11Zm9.56-16.15c-.63-.19-1.43,1.72-1,2.02,.62,.43,1.76-1.49,1-2.02Zm-6.39,13.84c2.36-2.98,3.98-5.78,4.15-9.7,.13-2.83-.39-2.8-2.03-.81-.92,1.12-2.11,3.04-2.3,4.49-.06,.44,.04,.91-.01,1.35-.22,1.83-.51,3.66-.68,5.5,.35-.05,.66-.56,.87-.83Zm7.27-11.2c-.64-.33-1.53,1.05-1.22,1.71,.85,.35,2.08-1.26,1.22-1.71Zm-20.5,3.27c-.54-.57-3.19-2.73-3.84-2.95-1.01-.34-.59,.67-.17,1.12l4.55,2.72c.09-.09-.44-.78-.54-.88Zm-3.66,2.3l7.46,5.5c.26-.23-4.24-4.57-4.69-4.88-.86-.62-1.83-1.09-2.92-1.09l.14,.47Zm-3.88,1.03c.95,.38,1.86,.82,2.74,1.33,1.11,.63,2.9,2.28,4.05,2.26,.26,0,.57-.05,.75-.27,.04-.18-.28-.42-.4-.54-.81-.78-1.97-1.74-2.87-2.43-.73-.56-1.59-1.36-2.53-1.4-.53-.02-2.6,.32-1.73,1.06Zm-3.56,1.8c.07,.81,2.63,.92,3.37,1.1,.66,.16,1.33,.39,1.97,.61,1.05,.36,1.78,1.18,2.78,.07-1.66-1.18-3.74-2.4-5.71-2.98-.66-.19-1.45-.35-1.99,.24-.16,.17-.34,.7-.42,.96Zm5.7,2.84c-1.07-.56-4.23-1.33-5.36-1.09-.55,.12-1.64,.95-1.69,1.55-.04,.44,.7,1.32,1.12,1.4,.76,.15,2.5-.33,3.39-.4,.53-.04,3.13,.12,3.31-.15,.13-.73-.19-1-.77-1.3Zm4.34,2.31c1.86,.79,4.47,1.52,6.46,1.82,1.76,.26,1.37-.06,.44-1.12-.85-.98-3.21-3.07-4.45-3.29-.25-.05-3.94,.23-4.25,.3-.33,.08-.62,.28-.79,.57-.02,.12,.21,.45,.3,.54,.34,.32,1.78,.97,2.28,1.18Zm-8.91,3.49c1.17-.05,3.1-1.47,4.41-1.84,.81-.23,1.77-.27,2.61-.38,.18-.02,.86-.02,.78-.3-.21-.25-.54-.4-.83-.53-1.64-.68-6.74-.51-8.08,.78-1.19,1.13-.45,2.34,1.11,2.27Zm15.88-.41c-4.57-.85-8.82-1.49-13.22,.62-.87,.42-3.2,2.24-1.99,3.18,.78,.6,1.98-.51,2.72-.82,4.16-1.77,8.47-1.32,12.7-2.71,.03-.36,.01-.22-.21-.27Zm-8.21,3.05c-1.19,.36-2.37,.76-3.53,1.22-.4,.16-3.13,1.31-3.12,1.49,.33,.27,.91,.64,1.32,.71,1.77,.33,3.79-1.36,5.47-2.07,2.37-.99,5.05-1.05,7.06-2.65l-7.2,1.29Zm3.44,1.81c.37-.16,.92-.36,1.17-.66-1.22,.12-2.67,.41-3.82,.86-.19,.07-2.21,1.01-1.88,1.31,.2,.18,3.99-1.27,4.53-1.51Z"/>
    </g>
  </g>
</svg>