<?xml version="1.0" encoding="UTF-8"?>
<svg id="Layer_2" data-name="Layer 2" xmlns="http://www.w3.org/2000/svg" viewBox="0 0 229.4 96.04">
  <defs>
    <style>
      .cls-1, .cls-2 {
        fill: #c78a2c;
      }

      .cls-2 {
        fill-rule: evenodd;
      }
    </style>
  </defs>
  <g id="Layer_1-2" data-name="Layer 1">
    <g>
      <g>
        <path class="cls-1" d="M28.28,7.12V3.27c0-1.52,1.23-2.75,2.75-2.75h23.13V7.12H28.28Zm16.91,12.48c0-1.13-.36-2.02-1.08-2.66s-1.69-.95-2.89-.95-2.12,.32-2.86,.95c-.74,.64-1.11,1.52-1.11,2.66v5.05l-2.11-1.96h.67c1.72,0,3,.38,3.84,1.13,.84,.76,1.26,1.91,1.26,3.45s-.49,2.78-1.47,3.58c-.98,.81-2.55,1.21-4.72,1.21s-3.7-.29-4.72-.88c-1.01-.58-1.52-1.46-1.52-2.63v-8.97c0-3.13,1.13-5.54,3.4-7.24,2.27-1.7,5.38-2.55,9.33-2.55s7.11,.85,9.36,2.55,3.38,4.12,3.38,7.24v12.17h-8.76v-12.15Zm-9.17,9.59c1.1,0,1.65-.6,1.65-1.8s-.55-1.8-1.65-1.8v3.61h0Z"/>
        <path class="cls-1" d="M46.02,48.62v-14.28h7.94v14.28h-7.94Z"/>
        <path class="cls-1" d="M90.67,32.28c-3.95,0-7.02-.85-9.2-2.55s-3.27-4.12-3.27-7.24V9.81c0-1.13-.34-2.02-1.03-2.66s-1.62-.95-2.78-.95-2.1,.32-2.78,.95c-.69,.64-1.03,1.52-1.03,2.66v14.85l-2.11-1.96h.67c1.72,0,3,.38,3.84,1.13,.84,.76,1.26,1.91,1.26,3.45s-.49,2.78-1.47,3.58c-.98,.81-2.55,1.21-4.72,1.21s-3.7-.29-4.72-.88c-1.01-.58-1.52-1.46-1.52-2.63V9.79c0-3.13,1.11-5.54,3.33-7.24,2.22-1.7,5.3-2.55,9.25-2.55s7.04,.85,9.26,2.55,3.33,4.12,3.33,7.24v12.68c0,1.13,.33,2.02,.98,2.66s1.56,.95,2.73,.95,2.08-.32,2.73-.95c.65-.64,.98-1.52,.98-2.66V12.78c0-.89-.15-1.55-.44-1.98-.29-.43-.7-.75-1.21-.95v-3.76c0-1.82,.45-3.2,1.34-4.15,.89-.94,2.22-1.42,3.97-1.42h5.41V7.12h-2.47c-.62,0-.93,.34-.93,1.03v.52c1.1,.41,1.89,.94,2.37,1.57,.48,.64,.72,1.56,.72,2.76v9.49c0,3.13-1.09,5.54-3.27,7.24-2.18,1.7-5.25,2.55-9.2,2.55h-.02Zm-21.35-3.09c1.1,0,1.65-.6,1.65-1.8s-.55-1.8-1.65-1.8v3.61h0ZM110.98,10.42c0-2.2-1.01-3.3-3.04-3.3h-5.41V.52h8.51c5.81,0,8.71,2.92,8.71,8.76V31.76h-8.76V10.42h-.01Z"/>
      </g>
      <path class="cls-1" d="M4.54,64.9c-9.23-25.61,17.68-16.6,45.09-10.22,2.21,.51,4.32-1.16,4.32-3.43v-2.77C31.47,41.96,6.31,32.91,.49,45.87c-1.52,3.39,.64,17.62,4.04,19.04h0Z"/>
      <polygon class="cls-2" points="55.04 58.39 56.23 62.25 60.09 63.44 56.23 64.63 55.04 68.49 53.85 64.63 49.99 63.44 53.85 62.25 55.04 58.39"/>
      <g>
        <polygon class="cls-2" points="212.89 26.15 214.28 30.68 218.82 32.08 214.28 33.47 212.89 38.01 211.5 33.47 206.96 32.08 211.5 30.68 212.89 26.15"/>
        <path class="cls-1" d="M228.87,82.54v.61c-.3,.61-.73,1.1-1.28,1.47-1.25,.86-3.26,1.27-6.01,1.27h-1.35c-1.45,0-2.9-.17-4.31-.51-1.39-.33-2.76-.66-4.09-.96-.51-.13-1-.23-1.5-.34-.82-.19-1.64-.37-2.43-.52-.25-.05-.49-.1-.73-.16-.4-.07-.79-.16-1.18-.23-1.88-.37-3.67-.66-5.36-.87-.42-.05-.82-.09-1.23-.14-.28-.03-.56-.05-.84-.07-1.98-.17-3.78-.16-5.33,.05-5.83,.79-8.34,4.52-4.96,13.9-2.8-1.17-4.57-12.86-3.32-15.64,4.18-9.32,20.55-4.78,36.96,.08,2.34,.69,4.67,1.39,6.97,2.06h-.01Z"/>
        <g>
          <path class="cls-2" d="M142.1,13.98c-.16-.24-.3-.46-.46-.74-.81-1.44-.98-2.99-.66-4.35,.02,.97,.27,1.98,.81,2.95,.23,.41,.42,.68,.68,1.06,.33,.48,.5,.56,.77,.97-.42,0-.8,.04-1.14,.11h0Zm2.76,15.75c.29,.57,.27,1.26-.76,1.93-.3,.19-.06,0-.31,.21h-.88c-1.34-.93-9.58-2.08-12.82-8.5-.71-1.41-.37-1.13-.76-2.21,0-.03-.03-.08-.05-.12v-1.75l.15-.52v.87s.04,.09,.05,.12c.39,1.08,.05,.8,.76,2.21,3.24,6.42,11.48,7.57,12.82,8.5h.88c.25-.22,.02-.02,.31-.21,.27-.18,.47-.35,.61-.53h0Zm19.74-19.14v1.02c-.17,.26-.03,0-.14,.38-.03,.1-.08,.31-.11,.41-.55,2.03-1.71,3.71-3.19,5.2-3.39,3.4-7.85,4.96-12.39,6.49l-1.77,.51c-.3,.1-2.08,1.5-2.93,2.66-.16-.14-.28-.23-.29-.27-.28-1.06,2.96-3.65,3.37-3.8l1.77-.51c4.54-1.53,9-3.09,12.39-6.49,1.49-1.49,2.65-3.17,3.19-5.2,.03-.1,.08-.3,.11-.4h0Z"/>
          <path class="cls-2" d="M138.8,17.74s2.63-3.05,5.82-2.01c0,0,2.37,.69,2.57,3.28,0,0,.26,2.07-3.52,5,0,0-3.56,3.02-.3,5.05,0,0-4.39-1.16-7.59-3.1,0,0-5.85-3.17-4.9-8.12,0,0,0-2.58,3.88-2.75,0,0,2.85-.26,4.04,2.64h0Z"/>
          <path class="cls-2" d="M152.85,7.37s-3.33-3.87-7.38-2.55c0,0-3,.88-3.26,4.15,0,0-.32,2.62,4.46,6.34,0,0,4.51,3.82,.38,6.4,0,0,5.56-1.46,9.62-3.92,0,0,6.3-3.41,6.34-8.86,0-.46-.04-.94-.13-1.43,0,0,0-3.27-4.92-3.48,0,0-3.61-.33-5.12,3.35h.01Z"/>
        </g>
        <g>
          <path class="cls-1" d="M74.79,66.09c-.47-.42-1.06-.71-1.81-.89v-9.22c0-1.12-.27-1.97-.82-2.57-.54-.6-1.42-1.09-2.64-1.46v-.48c0-.65,.29-.97,.87-.97h2.99v-6.15h-5.72c-1.64,0-2.87,.44-3.71,1.33-.84,.88-1.25,2.17-1.25,3.86v3.52c.68,.19,1.19,.48,1.57,.89,.37,.4,.55,1.01,.55,1.85v14.72c0,1.09,.45,1.9,1.35,2.44,.9,.55,2.29,.82,4.18,.82,3.76,0,5.63-1.49,5.63-4.48,0-1.44-.39-2.52-1.17-3.22h-.02Zm-3.35,5.01v-3.37c1.03,0,1.55,.56,1.55,1.69s-.51,1.68-1.55,1.68Z"/>
          <path class="cls-1" d="M89.36,50.74c.18-.16,.4-.24,.65-.24h11.31v-6.15h-14c-1.66,0-2.92,.44-3.77,1.33-.86,.88-1.27,2.17-1.27,3.86v3.03l2.08,1.95,2.72,2.57,5-2.44-2.17-1.97h0l-.79-.72v-.48c0-.32,.08-.56,.26-.73h0Zm27.96-.25h2.31v-6.15h-5.04c-1.64,0-2.87,.44-3.71,1.33-.84,.88-1.25,2.17-1.25,3.86v3.52c.49,.19,.87,.48,1.14,.89,.27,.4,.41,1.01,.41,1.85v9.04c0,1.05-.3,1.88-.92,2.47-.61,.6-1.45,.89-2.55,.89s-1.94-.29-2.55-.89-.91-1.42-.91-2.47v-3.47c0-2.82-1.03-5-3.1-6.54-2.08-1.53-4.95-2.31-8.63-2.31-.92,0-1.8,.05-2.61,.15h0c-2.22,.26-4.07,.88-5.54,1.85-.16,.09-.31,.2-.47,.31-2.07,1.53-3.1,3.72-3.1,6.54v9.15c0,1.09,.47,1.9,1.42,2.44,.94,.55,2.41,.82,4.4,.82s3.49-.38,4.41-1.14c.91-.75,1.37-1.86,1.37-3.34s-.4-2.52-1.18-3.22c-.54-.49-1.29-.81-2.23-.96v-3.76c0-.99,.32-1.76,.96-2.33,.64-.56,1.5-.85,2.6-.85s1.95,.28,2.59,.85c.65,.56,.97,1.34,.97,2.33v3.47c0,2.91,1.01,5.17,3.05,6.75,2.04,1.59,4.9,2.38,8.58,2.38s6.55-.79,8.58-2.38c2.04-1.59,3.06-3.84,3.06-6.75v-8.85c0-1.12-.23-1.97-.68-2.57s-1.18-1.09-2.21-1.46v-.48c0-.65,.29-.97,.87-.97h-.03Zm-27.98,18.91c0,1.12-.51,1.68-1.55,1.68v-3.37c1.03,0,1.55,.56,1.55,1.69Z"/>
          <path class="cls-1" d="M132.63,37.95c-1.45-1.32-3.8-1.97-7.04-1.97h-5.29v-2.5c0-1.12-.26-1.95-.77-2.47-.51-.53-1.33-.79-2.45-.79h-6.11v4.61h1.35c.58,0,.87,.29,.87,.87v5.58h9.72c1.32,0,2.27,.3,2.86,.92,.58,.61,.89,1.59,.89,2.93v32.11c0,1.06-.32,1.89-.96,2.48-.65,.58-1.55,.89-2.69,.89s-2.06-.3-2.69-.89c-.64-.6-.96-1.42-.96-2.48v-1.35h-8.17v1.35c0,2.92,1.03,5.17,3.1,6.75,2.07,1.59,4.98,2.38,8.73,2.38s6.66-.79,8.73-2.38c2.07-1.59,3.1-3.83,3.1-6.75V44.3c0-2.91-.73-5.03-2.19-6.35h-.03Z"/>
          <path class="cls-1" d="M146.65,42.62v2.59l-1.4-.86h-1.72c-1.83,0-2.75,1.08-2.75,3.22v5.63c.61,.14,1.14,.31,1.59,.55,.45,.24,.79,.55,1.03,.92s.37,.82,.37,1.37v9.07c-.96,.15-1.72,.47-2.29,.98-.78,.7-1.18,1.77-1.18,3.22s.47,2.59,1.4,3.34c.93,.76,2.41,1.14,4.47,1.14,3.84,0,5.77-1.1,5.77-3.27v-14.28c0-1.13-.38-2.05-1.11-2.77-.74-.72-1.88-1.27-3.41-1.66v-.57c0-.58,.25-.87,.76-.87h.29l2.01,.48h.44c.84,0,1.48-.22,1.94-.65,.47-.44,.7-1.09,.7-1.95v-5.63h-6.91Zm-1.35,28.47c-1.02,0-1.53-.56-1.53-1.68s.51-1.69,1.53-1.69v3.37Z"/>
          <path class="cls-1" d="M159.4,44.35v6.15h24.09v-6.15h-24.09Zm20.74,11.04c-2.1-1.59-4.96-2.38-8.58-2.38s-6.64,.81-8.65,2.43c-2.03,1.62-3.03,3.74-3.03,6.37,0,.96,.1,1.84,.33,2.64,.22,.8,.49,1.53,.79,2.19s.56,1.24,.79,1.75c.22,.51,.33,.98,.33,1.39,0,.14-.02,.26-.05,.39-.03,.14-.07,.24-.14,.34h-.1c-.34-.26-.67-.66-.96-1.21-.28-.54-.51-1.15-.67-1.83l-3.65,1.55c.39,1.12,.85,2.04,1.39,2.77,.54,.72,1.23,1.24,2.07,1.59,.84,.33,1.88,.5,3.13,.5,1.83,0,3.34-.37,4.54-1.11s1.81-1.94,1.81-3.6c0-.58-.06-1.18-.2-1.79-.13-.61-.28-1.22-.48-1.83-.19-.61-.35-1.21-.48-1.81-.13-.58-.19-1.14-.19-1.66,0-1.02,.29-1.83,.89-2.42,.6-.6,1.39-.89,2.38-.89,1.12,0,2.01,.29,2.69,.89,.67,.6,1.01,1.42,1.01,2.47v11.35h8.17v-11.35c0-2.91-1.05-5.17-3.15-6.75h0Z"/>
          <path class="cls-1" d="M227.03,46.03c-1.43-1.12-3.42-1.68-5.99-1.68h-4.47l-5.04,3.7-1.12,.82,2.51,4.61,1.05-.73,3.37-2.35h1.24c1.61,0,2.41,.77,2.41,2.31v20.78h8.17v-21.59c0-2.79-.72-4.74-2.14-5.87h.01Zm1.15,30.85c-.85-.92-2.41-1.37-4.69-1.37-.57,0-1.18,.03-1.81,.09h-.02c-.88,0-1.59,.71-1.59,1.59v1.87c.23-.06,.49-.11,.79-.17,.3-.04,.57-.07,.79-.07,.32,0,.56,.06,.72,.2,.17,.13,.24,.31,.24,.57,0,.32-.14,.56-.41,.74-.09,.06-.2,.11-.32,.15-.23,.08-.52,.13-.86,.13h-3.22c-1.44,0-2.82-.14-4.11-.39-1.31-.26-2.61-.57-3.95-.94-1.33-.37-2.74-.74-4.23-1.11-1.49-.37-3.13-.68-4.93-.94-1.8-.25-3.82-.39-6.07-.39h-1.53v5.29h.21c1.56-.21,3.35-.22,5.33-.05,.27,.02,.55,.04,.84,.07,.41,.04,.81,.08,1.23,.14,1.68,.21,3.48,.5,5.36,.87,.39,.07,.78,.15,1.18,.23,.24,.05,.48,.1,.73,.16,.79,.16,1.61,.33,2.43,.52,.5,.11,.99,.22,1.5,.34,1.34,.3,2.71,.63,4.1,.96s2.87,.51,4.33,.51h1.31c2.76,0,4.76-.42,6.01-1.27,.55-.38,.98-.87,1.28-1.47,.4-.75,.58-1.68,.58-2.78,0-1.41-.42-2.58-1.27-3.49h.05Zm-16.65-28.82l-4.33-4.18h-.58l-2.74,2.07c-.94,.71-2.23,.71-3.17,0l-2.75-2.07h-.57l-6.78,6.54v20.11c0,1.09,.47,1.9,1.42,2.44,.94,.55,2.41,.82,4.4,.82s3.49-.38,4.4-1.14c.92-.75,1.38-1.86,1.38-3.34s-.4-2.52-1.18-3.22c-.54-.49-1.29-.81-2.23-.96v-12.94l1.05-1.01,2.31,1.92h.29l2.31-1.92,1.05,1.01v21.3h8.17v-23.08l-2.44-2.36h-.01Zm-12.36,21.37c0,1.12-.52,1.68-1.55,1.68v-3.37c1.02,0,1.55,.56,1.55,1.69Z"/>
          <path class="cls-1" d="M178.97,26.36c-.28-.24-.47-.38-.53-.42h-.01c-3.25-2.48-6.98-3.74-9.74-3.77-5.45-.45-13.02,4.3-12.05,11.77,1,7.82,8.46,8.93,16.36,7.4,6.09-.57,9.76,.64,12.04,3.35,.41-1.83,.56-3.53,.52-5.12-1.05-7.9-5.11-11.97-6.59-13.22h0Zm-14.41,6.11c.02-2.6,3.06-5.29,8.23-4.26,5.68,.96,8.64,5.49,10.89,10.97-7.13-4.24-19.17,1.92-19.12-6.71h0Z"/>
        </g>
        <polygon class="cls-2" points="95.4 78.21 96.8 82.75 101.33 84.14 96.8 85.54 95.4 90.07 94.01 85.54 89.47 84.14 94.01 82.75 95.4 78.21"/>
      </g>
      <path class="cls-1" d="M18.7,29.69c.1,0,.18,.39,0,.45-.13,.04-.64-.14-.9-.13-.52,.02-1.35,.39-1.79,.69-.1,.07-.75,.59-.79,.64-.07,.1-.07,.18-.06,.3,1.26-.65,2.81-1.09,4.13-.32l-.05,.32c-.16,.1-.8-.32-1.08-.37-.72-.11-2.12,.19-2.7,.64-.28,.22-.19,.5-.34,.77-.21,.38-.58,.27-.84,.46-.19,.14-.49,.61-.74,.81-.63,.52-1.28,.68-1.94,1.05-.72,.4-1.19,1.25-1.83,1.81-.27,.24-.96,.84-1.32,.74-.45-.28-.16-.7-.11-1.07q0-.1-.1-.1c-.2,0-1.13,.56-1.46,.68-1.21,.43-3.26,.76-4.35-.07-.82-.62-1.11-1.11-1.51-2-.15-.34-.58-.69-.64-1.05-.04-.28,.06-.53,.04-.76-.02-.33-.32-.6-.32-.93,0-.3,.29-.55,.31-.92,.01-.3-.15-.53-.17-.77-.07-.74,.53-.88,.81-1.41,.18-.33,.12-.48,.19-.79,.13-.61,.7-.55,1.06-.89,.33-.32,.32-.88,.91-.97,.82-.13,1.26,.16,1.98,.29,.39,.07,.03-.22-.06-.33-.48-.61-1.01-1.37-.89-2.19,.04-.32,.27-.56,.3-.8s-.06-.39-.06-.57c.01-.49,.56-.81,.62-1.21,.03-.18-.05-.31-.05-.49,0-.55,.42-.71,.67-1.09,.27-.41,.23-.86,.44-1.25,.27-.51,.87-.68,1.12-1.28,.3-.73,.04-1.54,.49-2.23,.2-.3,.58-.59,.96-.61,1.12-.04,2.3,1.8,2.81,2.65,.29,.47,.59,1.24,.89,1.64,.55,.72,1.42-.42,2.02-.63,.52-.18,1-.06,1.48-.34,.65-.37,.85-1.3,1.73-1.52,2.05-.52,1.94,3.08,1.88,4.28-.22,3.9-2.02,7.43-4.62,10.26-.03,.08,.02,.13,.1,.1s.53-.5,.69-.61c.46-.33,1.3-.81,1.85-.88,.35-.04,.86,0,1.23,0h0Zm-7.8-11.7c.07,.18,.51,.86,.64,1.05,.05,.08,0,.16,.17,.12,.12-.15-.43-1.59-.84-1.49,0,.11,0,.21,.04,.32h0Zm-1.11,2.41c-.16-.23-1.26-1.5-1.46-1.41-.63,.31,.6,1.28,.81,1.53,.17,.19,.93,1.17,1.06,1.21,.07,.02,.13-.03,.2-.04,.11-.16-.49-1.11-.62-1.29h.01Zm.43-1.08c-.13-.13-.57-.51-.51-.08,.08,.54,1.04,1.78,1.35,2.29l.19-.04c-.04-.75-.51-1.64-1.03-2.17h0Zm1.55,1.66c-.07-.6-.27-1.23-.75-1.62-.07-.06-.1-.16-.23-.13-.08,.09,.71,1.66,.97,1.75h0Zm3.98-1.07c-.28,.41,.03,1.05,.1,1.51,.07,.42,.08,1.02,.16,1.4,.03,.12,.12,.22,.21,.3,.06-.05,.12-.1,.15-.18,.21-.6,.04-2.07-.15-2.68-.04-.13-.12-.41-.27-.45-.11-.03-.15,0-.21,.1h0Zm3.04,1.95c.17-.21,.32-1.55,.1-1.59-.09-.03-.23,.2-.23,.23v1.3l.13,.07h0Zm-1.49-1.15c-.18-.04-.27,.07-.31,.24-.07,.3-.13,1.02-.15,1.35-.02,.32,0,.65,0,.97,.04,.13,.19,.13,.31,.1,.37-.83,.34-1.79,.14-2.65h0Zm-8.36,.46c-.22-.15-.51-.29-.77-.14-.75,.43,.41,1.02,.69,1.27,.2,.18,.43,.42,.62,.62,.07,.07,.64,.91,.75,.78,0-.94-.48-1.99-1.28-2.52h0Zm5.43,.59c.02,.36,.36,1.11,.44,1.58,.05,.3,.04,.67,.08,.96,0,.09,.06,.19,.16,.16,.54-.77,.69-1.91,.22-2.75-.11-.2-.24-.4-.49-.42-.3-.03-.42,.19-.41,.47h0Zm3.51,1.4c.29-.6,.35-1.12,.13-1.75h-.19c.07,.16-.07,.4-.07,.49v1.1c0,.05-.12,.16,.13,.16h0Zm-4.03,1.21c.04,.51-.03,1.05,0,1.55,0,.12-.02,.21,.1,.29,.85-1.09,.68-3.3-.23-4.32-.05-.06-.33-.36-.39-.29,.11,.91,.43,1.86,.51,2.77h0Zm-3.57,.58c0-.71-1.96-2.74-2.71-2.88-1.6-.3-1.35,.82-.47,1.58l3.18,2.5v-1.2h0Zm1.59-1.6c.26-.2,.1-1.16-.14-1.23-.51-.15-.25,1.34,.14,1.23Zm.78,.66c.44,.04,.49-1.02,.06-1.02s-.39,.99-.06,1.02Zm-1.82,4.16c-.46-1.26-.8-1.52-1.78-2.38-.47-.41-2.69-2.26-3.12-2.34-.48-.09-.85,.31-.79,.79,.06,.47,1.33,1.14,1.72,1.46,2,1.59,2.77,4.03,4.74,5.65,.07,.06,.1,.16,.23,.13-.29-1.11-.62-2.23-1.01-3.31h0Zm1.6,3.7h.19c.03-.27,.1-.54,.13-.81,.29-2.38,.28-4.68-1.05-6.74-.17-.26-.34-.65-.7-.63-.74,2.8,.84,5.51,1.43,8.19h0Zm4.57-7.75c-.3-.09-.68,.82-.48,.97,.3,.21,.84-.71,.48-.97Zm-3.05,6.63c1.13-1.43,1.9-2.77,1.99-4.64,.06-1.36-.19-1.34-.97-.39-.44,.54-1.01,1.46-1.1,2.15-.03,.21,.02,.44,0,.64-.11,.88-.24,1.75-.32,2.63,.17-.02,.32-.27,.42-.4h-.02Zm3.48-5.35c-.31-.16-.73,.5-.58,.82,.41,.17,.99-.6,.58-.82Zm-9.81,1.56c-.26-.27-1.53-1.31-1.84-1.41-.49-.16-.28,.32-.08,.53l2.18,1.3s-.21-.37-.26-.42Zm-1.75,1.1l3.57,2.63c.12-.11-2.03-2.19-2.24-2.34-.41-.3-.87-.52-1.4-.52l.07,.22h0Zm-1.86,.51c.45,.18,.89,.39,1.31,.64,.53,.3,1.39,1.09,1.94,1.08,.12,0,.27-.03,.36-.13,.02-.09-.13-.2-.19-.26-.39-.37-.94-.83-1.37-1.16-.35-.27-.76-.65-1.21-.67-.25,0-1.25,.15-.83,.51h-.01Zm-1.71,.85c.03,.39,1.26,.44,1.61,.53,.31,.08,.63,.19,.94,.29,.5,.17,.85,.56,1.33,.03-.8-.56-1.79-1.15-2.73-1.43-.31-.09-.7-.17-.95,.11-.08,.08-.16,.34-.2,.46h0Zm2.73,1.37c-.51-.27-2.02-.64-2.57-.52-.26,.06-.78,.46-.81,.74-.02,.21,.34,.63,.54,.67,.37,.07,1.2-.16,1.62-.19,.26-.02,1.5,.06,1.58-.07,.06-.35-.09-.48-.37-.62h0Zm2.08,1.1c.89,.38,2.14,.73,3.09,.87,.84,.13,.65-.03,.21-.54-.41-.47-1.54-1.47-2.13-1.58-.12-.02-1.89,.11-2.03,.14-.16,.04-.3,.13-.38,.27,0,.06,.1,.22,.14,.26,.16,.15,.85,.46,1.09,.56v.02Zm-4.26,1.67c.56-.02,1.48-.71,2.11-.88,.39-.11,.85-.13,1.25-.18,.08,0,.41,0,.38-.14-.1-.12-.26-.19-.4-.25-.79-.33-3.23-.24-3.87,.37-.57,.54-.21,1.12,.53,1.09h0Zm7.6-.21c-2.19-.41-4.22-.71-6.33,.3-.41,.2-1.53,1.07-.95,1.52,.37,.29,.95-.24,1.3-.39,1.99-.85,4.05-.63,6.08-1.3,0-.17,0-.11-.1-.13Zm-3.93,1.46c-.57,.17-1.14,.36-1.69,.59-.19,.08-1.5,.63-1.49,.71,.16,.13,.44,.3,.63,.34,.85,.16,1.81-.65,2.62-.99,1.13-.48,2.42-.5,3.38-1.27l-3.44,.62h0Zm1.65,.87c.18-.08,.44-.17,.56-.32-.58,.06-1.28,.2-1.83,.41-.09,.03-1.06,.48-.9,.63,.09,.09,1.91-.61,2.17-.72Z"/>
    </g>
  </g>
</svg>